# This file uses meters as units for non-parametric coordinates.

v 98.735291 -0.000000 0.218651
v 98.735291 0.000000 -100.000000
v 198.735291 0.000000 -100.000000
v 103.456238 5.923769 -96.543762
v 103.456238 5.923769 -3.456238
v 195.171204 5.923769 -96.543762
v 195.171204 5.923769 -3.456238
v 198.735291 -0.000000 0.000000
v 98.735291 0.000000 -200.000000
v -1.264709 0.000000 -100.000000
v -1.264709 0.000000 0.000000
v 6.367615 5.923769 -96.543762
v 6.367615 5.923769 -3.456238
v 95.171204 5.923769 -96.543762
v 95.171204 5.923769 -3.456238
v -1.264709 0.000000 -200.000000
v 6.367615 5.923769 -196.543762
v 6.367615 5.923769 -103.456238
v 95.171204 5.923769 -196.543762
v 95.171204 5.923769 -103.456238
v 101.972870 5.923769 -104.720940
v 195.060394 5.923769 -104.720940
v 101.972870 5.923769 -196.435913
v 195.060394 5.923769 -196.435913
v 198.516632 0.000000 -200.000000
vt 0.000562 0.961348
vt 0.039497 0.961348
vt 0.036254 0.964055
vt 0.002775 0.964055
vt 0.036235 0.996821
vt 0.002775 0.996821
vt 0.039497 0.999408
vt 0.000562 0.999408
vt 0.000562 0.961348
vt 0.039497 0.961348
vt 0.036254 0.964055
vt 0.002775 0.964055
vt 0.036235 0.996821
vt 0.002775 0.996821
vt 0.039497 0.999408
vt 0.000562 0.999408
vt 0.000562 0.961348
vt 0.039497 0.961348
vt 0.036254 0.964055
vt 0.002775 0.964055
vt 0.036235 0.996821
vt 0.002775 0.996821
vt 0.039497 0.999408
vt 0.000562 0.999408
vt 0.000562 0.961348
vt 0.039497 0.961348
vt 0.036254 0.964055
vt 0.002775 0.964055
vt 0.036235 0.996821
vt 0.002775 0.996821
vt 0.039497 0.999408
vt 0.000562 0.999408
vn -0.545359 0.701924 -0.458133
vn -0.535750 0.706067 0.463078
vn -0.076251 0.993786 0.081090
vn -0.075607 0.993798 -0.081542
vn 0.078162 0.993876 0.078114
vn 0.078184 0.993865 -0.078226
vn 0.544411 0.647844 0.532837
vn 0.547706 0.642334 -0.536120
vn -0.500443 0.815083 -0.291884
vn -0.498288 0.816764 0.290869
vn -0.071630 0.993539 0.088034
vn -0.071647 0.993524 -0.088180
vn 0.081361 0.993554 0.078938
vn 0.080623 0.993581 -0.079351
vn 0.540662 0.648449 0.535909
vn 0.552091 0.642335 -0.531603
vn -0.500443 0.815083 -0.291884
vn -0.500443 0.815083 0.291884
vn -0.071647 0.993524 0.088180
vn -0.071647 0.993524 -0.088180
vn 0.080537 0.993588 0.079356
vn 0.080537 0.993588 -0.079356
vn 0.551789 0.642336 0.531915
vn 0.551789 0.642336 -0.531915
vn -0.455847 0.693632 0.557744
vn 0.463388 0.706053 0.535500
vn 0.081096 0.993791 0.076170
vn -0.082122 0.993805 0.074885
vn 0.078119 0.993882 -0.078078
vn -0.078745 0.993887 -0.077378
vn 0.533144 0.647846 -0.544108
vn -0.535136 0.630645 -0.562065
s 1
f 2/1/1 1/2/2 5/3/3 4/4/4
f 4/4/4 5/3/3 7/5/5 6/6/6
f 6/6/6 7/5/5 8/7/7 3/8/8
f 1/2/2 8/7/7 7/5/5 5/3/3
f 3/8/8 2/1/1 4/4/4 6/6/6
s 2
f 10/9/9 11/10/10 13/11/11 12/12/12
f 12/12/12 13/11/11 15/13/13 14/14/14
f 14/14/14 15/13/13 1/15/15 2/16/16
f 11/10/10 1/15/15 15/13/13 13/11/11
f 2/16/16 10/9/9 12/12/12 14/14/14
s 3
f 16/17/17 10/18/18 18/19/19 17/20/20
f 17/20/20 18/19/19 20/21/21 19/22/22
f 19/22/22 20/21/21 2/23/23 9/24/24
f 10/18/18 2/23/23 20/21/21 18/19/19
f 9/24/24 16/17/17 17/20/20 19/22/22
s 4
f 2/25/25 3/26/26 22/27/27 21/28/28
f 21/28/28 22/27/27 24/29/29 23/30/30
f 23/30/30 24/29/29 25/31/31 9/32/32
f 3/26/26 25/31/31 24/29/29 22/27/27
f 9/32/32 2/25/25 21/28/28 23/30/30
