# This file uses meters as units for non-parametric coordinates.

v -45.279072 5.923769 -46.543762
v -45.279072 5.923769 46.543762
v 46.435902 5.923769 -46.543762
v 46.435902 5.923769 46.543762
v 49.999989 -0.000000 -50.000000
v -50.000011 -0.000000 -50.000000
v -50.000011 -0.000000 50.000000
v 49.999989 -0.000000 50.000000
vt 0.000562 0.961348
vt 0.039497 0.961348
vt 0.036254 0.964055
vt 0.002775 0.964055
vt 0.036235 0.996821
vt 0.002775 0.996821
vt 0.039497 0.999408
vt 0.000562 0.999408
vn -0.545114 0.701910 -0.458447
vn -0.545114 0.701910 0.458447
vn -0.075527 0.993804 0.081548
vn -0.075527 0.993804 -0.081548
vn 0.078184 0.993865 0.078226
vn 0.078184 0.993865 -0.078226
vn 0.547706 0.642334 0.536121
vn 0.547706 0.642334 -0.536121
s 1
f 6/1/1 7/2/2 2/3/3 1/4/4
f 1/4/4 2/3/3 4/5/5 3/6/6
f 3/6/6 4/5/5 8/7/7 5/8/8
f 7/2/2 8/7/7 4/5/5 2/3/3
f 5/8/8 6/1/1 1/4/4 3/6/6
